<svg width="727" height="242" viewBox="0 0 727 242" fill="none" xmlns="http://www.w3.org/2000/svg">
<path d="M40.56 180.96H0L63.36 3.36H101.28L164.4 180.96H123.12L110.64 143.52H53.28L40.56 180.96ZM77.28 72.96L64.56 110.88H99.6L86.88 72.96C84.96 66.96 82.8 60 82.08 55.68C81.36 59.76 79.44 66.48 77.28 72.96Z" fill="black"/>
<path d="M215.216 184.08C180.656 184.08 158.336 159.6 158.336 121.68C158.336 83.52 181.136 57.12 217.616 57.12C232.496 57.12 246.656 63.12 253.616 72V0H290.576V180.96H255.776L253.856 165.6C247.376 176.64 232.496 184.08 215.216 184.08ZM224.096 150.24C241.376 150.24 253.376 138.24 253.376 120.24C253.376 102.24 241.376 90.24 224.096 90.24C206.576 90.24 195.536 102.48 195.536 120.24C195.536 138 206.576 150.24 224.096 150.24Z" fill="black"/>
<path d="M326.972 42.24C315.212 42.24 305.852 32.88 305.852 21.12C305.852 9.35999 315.212 0.239997 326.972 0.239997C338.492 0.239997 347.852 9.35999 347.852 21.12C347.852 32.88 338.492 42.24 326.972 42.24ZM308.732 180.96V60.96H345.692V180.96H308.732Z" fill="black"/>
<path d="M412.299 180.96H375.339V91.68H352.539V60.96H375.339V23.76H412.299V60.96H435.099V91.68H412.299V180.96Z" fill="black"/>
<path d="M460.35 42.24C448.59 42.24 439.23 32.88 439.23 21.12C439.23 9.35999 448.59 0.239997 460.35 0.239997C471.87 0.239997 481.23 9.35999 481.23 21.12C481.23 32.88 471.87 42.24 460.35 42.24ZM442.11 180.96V60.96H479.07V180.96H442.11Z" fill="black"/>
<path d="M487.598 238.56V207.6H507.997C520.477 207.6 525.757 203.76 530.557 190.8L532.718 185.04L484.478 60.96H524.078L550.237 138L579.278 60.96H617.677L556.718 207.12C546.638 231.6 533.198 241.92 512.078 241.92C503.198 241.92 494.798 240.72 487.598 238.56Z" fill="black"/>
<path d="M653.447 184.08C628.007 184.08 612.167 169.2 612.167 145.68C612.167 123.6 627.767 109.92 656.567 107.76L690.167 105.12V103.2C690.167 91.44 682.967 85.2 669.767 85.2C654.167 85.2 645.767 91.2 645.767 102H615.047C615.047 74.88 637.367 57.12 671.687 57.12C706.487 57.12 726.167 76.56 726.167 110.88V180.96H693.527L691.127 165.12C687.287 176.16 671.447 184.08 653.447 184.08ZM666.407 156.72C680.567 156.72 690.407 149.76 690.407 136.08V129.6L671.687 131.28C655.607 132.72 649.847 136.32 649.847 144C649.847 152.64 655.127 156.72 666.407 156.72Z" fill="black"/>
</svg>
