<svg width="1791" height="242" viewBox="0 0 1791 242" fill="none" xmlns="http://www.w3.org/2000/svg">
<path d="M40.56 180.96H0L63.36 3.36H101.28L164.4 180.96H123.12L110.64 143.52H53.28L40.56 180.96ZM77.28 72.96L64.56 110.88H99.6L86.88 72.96C84.96 66.96 82.8 60 82.08 55.68C81.36 59.76 79.44 66.48 77.28 72.96Z" fill="currentColor"/>
<path d="M215.216 184.08C180.656 184.08 158.336 159.6 158.336 121.68C158.336 83.52 181.136 57.12 217.616 57.12C232.496 57.12 246.656 63.12 253.616 72V0H290.576V180.96H255.776L253.856 165.6C247.376 176.64 232.496 184.08 215.216 184.08ZM224.096 150.24C241.376 150.24 253.376 138.24 253.376 120.24C253.376 102.24 241.376 90.24 224.096 90.24C206.576 90.24 195.536 102.48 195.536 120.24C195.536 138 206.576 150.24 224.096 150.24Z" fill="currentColor"/>
<path d="M326.972 42.24C315.212 42.24 305.852 32.88 305.852 21.12C305.852 9.35999 315.212 0.239997 326.972 0.239997C338.492 0.239997 347.852 9.35999 347.852 21.12C347.852 32.88 338.492 42.24 326.972 42.24ZM308.732 180.96V60.96H345.692V180.96H308.732Z" fill="currentColor"/>
<path d="M412.299 180.96H375.339V91.68H352.539V60.96H375.339V23.76H412.299V60.96H435.099V91.68H412.299V180.96Z" fill="currentColor"/>
<path d="M460.35 42.24C448.59 42.24 439.23 32.88 439.23 21.12C439.23 9.35999 448.59 0.239997 460.35 0.239997C471.87 0.239997 481.23 9.35999 481.23 21.12C481.23 32.88 471.87 42.24 460.35 42.24ZM442.11 180.96V60.96H479.07V180.96H442.11Z" fill="currentColor"/>
<path d="M487.598 238.56V207.6H507.997C520.477 207.6 525.757 203.76 530.557 190.8L532.718 185.04L484.478 60.96H524.078L550.237 138L579.278 60.96H617.677L556.718 207.12C546.638 231.6 533.198 241.92 512.078 241.92C503.198 241.92 494.798 240.72 487.598 238.56Z" fill="currentColor"/>
<path d="M653.447 184.08C628.007 184.08 612.167 169.2 612.167 145.68C612.167 123.6 627.767 109.92 656.567 107.76L690.167 105.12V103.2C690.167 91.44 682.967 85.2 669.767 85.2C654.167 85.2 645.767 91.2 645.767 102H615.047C615.047 74.88 637.367 57.12 671.687 57.12C706.487 57.12 726.167 76.56 726.167 110.88V180.96H693.527L691.127 165.12C687.287 176.16 671.447 184.08 653.447 184.08ZM666.407 156.72C680.567 156.72 690.407 149.76 690.407 136.08V129.6L671.687 131.28C655.607 132.72 649.847 136.32 649.847 144C649.847 152.64 655.127 156.72 666.407 156.72Z" fill="currentColor"/>
<path d="M840.431 180.96H801.551V3.36H870.191C913.391 3.36 937.871 24.24 937.871 60.96C937.871 84 928.031 100.32 908.351 110.4L939.551 180.96H897.071L870.431 118.8H840.431V180.96ZM840.431 37.92V84.72H869.951C886.991 84.72 896.831 76.08 896.831 60.96C896.831 46.08 887.471 37.92 870.191 37.92H840.431Z" fill="currentColor"/>
<path d="M984.178 184.08C958.738 184.08 942.898 169.2 942.898 145.68C942.898 123.6 958.498 109.92 987.298 107.76L1020.9 105.12V103.2C1020.9 91.44 1013.7 85.2 1000.5 85.2C984.898 85.2 976.498 91.2 976.498 102H945.778C945.778 74.88 968.098 57.12 1002.42 57.12C1037.22 57.12 1056.9 76.56 1056.9 110.88V180.96H1024.26L1021.86 165.12C1018.02 176.16 1002.18 184.08 984.178 184.08ZM997.138 156.72C1011.3 156.72 1021.14 149.76 1021.14 136.08V129.6L1002.42 131.28C986.338 132.72 980.578 136.32 980.578 144C980.578 152.64 985.858 156.72 997.138 156.72Z" fill="currentColor"/>
<path d="M1067.33 120.48C1067.33 83.52 1092.77 57.12 1128.77 57.12C1164.29 57.12 1187.81 76.56 1190.21 108H1153.01C1150.37 96 1142.93 90.24 1130.21 90.24C1114.61 90.24 1104.53 102 1104.53 120.48C1104.53 139.68 1113.89 150.96 1129.73 150.96C1142.69 150.96 1150.61 144.96 1153.01 133.2H1190.21C1187.81 163.44 1163.33 184.08 1129.73 184.08C1091.81 184.08 1067.33 158.88 1067.33 120.48Z" fill="currentColor"/>
<path d="M1237.81 180.96H1200.85V0H1238.05V73.44C1245.49 63.12 1259.17 57.12 1274.77 57.12C1303.33 57.12 1319.89 75.36 1319.89 106.8V180.96H1282.93V115.68C1282.93 100.56 1274.53 90.72 1261.81 90.72C1247.17 90.72 1237.81 100.32 1237.81 115.2V180.96Z" fill="currentColor"/>
<path d="M1373.75 180.96H1336.79V60.96H1371.35L1373.75 73.44C1379.75 65.04 1391.51 57.12 1408.79 57.12C1426.79 57.12 1438.31 65.52 1445.27 78.24C1451.51 65.52 1465.67 57.12 1482.95 57.12C1513.91 57.12 1529.27 75.12 1529.27 102.48V180.96H1492.31V112.8C1492.31 97.68 1484.39 90.48 1472.63 90.48C1462.07 90.48 1451.51 96.24 1451.51 116.64V180.96H1414.55V112.8C1414.55 97.92 1406.87 90.72 1395.11 90.72C1384.55 90.72 1373.75 96.48 1373.75 116.64V180.96Z" fill="currentColor"/>
<path d="M1582.34 184.08C1556.9 184.08 1541.06 169.2 1541.06 145.68C1541.06 123.6 1556.66 109.92 1585.46 107.76L1619.06 105.12V103.2C1619.06 91.44 1611.86 85.2 1598.66 85.2C1583.06 85.2 1574.66 91.2 1574.66 102H1543.94C1543.94 74.88 1566.26 57.12 1600.58 57.12C1635.38 57.12 1655.06 76.56 1655.06 110.88V180.96H1622.42L1620.02 165.12C1616.18 176.16 1600.34 184.08 1582.34 184.08ZM1595.3 156.72C1609.46 156.72 1619.3 149.76 1619.3 136.08V129.6L1600.58 131.28C1584.5 132.72 1578.74 136.32 1578.74 144C1578.74 152.64 1584.02 156.72 1595.3 156.72Z" fill="currentColor"/>
<path d="M1708.93 180.96H1671.97V60.96H1706.77L1709.17 73.44C1716.61 63.12 1730.29 57.12 1745.89 57.12C1774.45 57.12 1791.01 75.36 1791.01 106.8V180.96H1754.05V115.68C1754.05 100.56 1745.65 90.72 1732.93 90.72C1718.29 90.72 1708.93 100.32 1708.93 115.2V180.96Z" fill="currentColor"/>
</svg>
