<svg width="990" height="242" viewBox="0 0 990 242" fill="none" xmlns="http://www.w3.org/2000/svg">
<path d="M39.4313 180.96H0.55127V3.36H69.1913C112.391 3.36 136.871 24.24 136.871 60.96C136.871 84 127.031 100.32 107.351 110.4L138.551 180.96H96.0713L69.4313 118.8H39.4313V180.96ZM39.4313 37.92V84.72H68.9513C85.9913 84.72 95.8313 76.08 95.8313 60.96C95.8313 46.08 86.4713 37.92 69.1913 37.92H39.4313Z" fill="black"/>
<path d="M183.178 184.08C157.738 184.08 141.898 169.2 141.898 145.68C141.898 123.6 157.498 109.92 186.298 107.76L219.898 105.12V103.2C219.898 91.44 212.698 85.2 199.498 85.2C183.898 85.2 175.498 91.2 175.498 102H144.778C144.778 74.88 167.098 57.12 201.418 57.12C236.218 57.12 255.898 76.56 255.898 110.88V180.96H223.258L220.858 165.12C217.018 176.16 201.178 184.08 183.178 184.08ZM196.138 156.72C210.298 156.72 220.138 149.76 220.138 136.08V129.6L201.418 131.28C185.338 132.72 179.578 136.32 179.578 144C179.578 152.64 184.858 156.72 196.138 156.72Z" fill="black"/>
<path d="M266.327 120.48C266.327 83.52 291.767 57.12 327.767 57.12C363.287 57.12 386.807 76.56 389.207 108H352.007C349.367 96 341.927 90.24 329.207 90.24C313.607 90.24 303.527 102 303.527 120.48C303.527 139.68 312.887 150.96 328.727 150.96C341.687 150.96 349.607 144.96 352.007 133.2H389.207C386.807 163.44 362.327 184.08 328.727 184.08C290.807 184.08 266.327 158.88 266.327 120.48Z" fill="black"/>
<path d="M436.807 180.96H399.848V0H437.047V73.44C444.487 63.12 458.168 57.12 473.768 57.12C502.328 57.12 518.888 75.36 518.888 106.8V180.96H481.927V115.68C481.927 100.56 473.527 90.72 460.807 90.72C446.167 90.72 436.807 100.32 436.807 115.2V180.96Z" fill="black"/>
<path d="M572.754 180.96H535.794V60.96H570.354L572.754 73.44C578.754 65.04 590.514 57.12 607.794 57.12C625.794 57.12 637.314 65.52 644.274 78.24C650.514 65.52 664.674 57.12 681.954 57.12C712.914 57.12 728.274 75.12 728.274 102.48V180.96H691.314V112.8C691.314 97.68 683.394 90.48 671.634 90.48C661.074 90.48 650.514 96.24 650.514 116.64V180.96H613.554V112.8C613.554 97.92 605.874 90.72 594.114 90.72C583.554 90.72 572.754 96.48 572.754 116.64V180.96Z" fill="black"/>
<path d="M781.341 184.08C755.901 184.08 740.061 169.2 740.061 145.68C740.061 123.6 755.661 109.92 784.461 107.76L818.061 105.12V103.2C818.061 91.44 810.861 85.2 797.661 85.2C782.061 85.2 773.661 91.2 773.661 102H742.941C742.941 74.88 765.261 57.12 799.581 57.12C834.381 57.12 854.061 76.56 854.061 110.88V180.96H821.421L819.021 165.12C815.181 176.16 799.341 184.08 781.341 184.08ZM794.301 156.72C808.461 156.72 818.301 149.76 818.301 136.08V129.6L799.581 131.28C783.501 132.72 777.741 136.32 777.741 144C777.741 152.64 783.021 156.72 794.301 156.72Z" fill="black"/>
<path d="M907.929 180.96H870.969V60.96H905.769L908.169 73.44C915.609 63.12 929.289 57.12 944.889 57.12C973.449 57.12 990.009 75.36 990.009 106.8V180.96H953.049V115.68C953.049 100.56 944.649 90.72 931.929 90.72C917.289 90.72 907.929 100.32 907.929 115.2V180.96Z" fill="black"/>
</svg>
